<?xml version="1.0" encoding="UTF-8"?>
<svg width="20px" height="20px" viewBox="0 0 20 20" version="1.1" xmlns="http://www.w3.org/2000/svg" xmlns:xlink="http://www.w3.org/1999/xlink">
    <title>tianjia</title>
    <defs>
        <polygon id="path-1" points="0 0 20 0 20 20 0 20"></polygon>
    </defs>
    <g id="页面-1" stroke="none" stroke-width="1" fill="none" fill-rule="evenodd">
        <g id="add-meme" transform="translate(-1135.000000, -691.000000)">
            <g id="编组-41" transform="translate(650.000000, 235.000000)">
                <g id="tianjia" transform="translate(485.000000, 456.000000)">
                    <mask id="mask-2" fill="white">
                        <use xlink:href="#path-1"></use>
                    </mask>
                    <g id="Clip-2"></g>
                    <path d="M9.9992675,20 C4.47604235,20 -0.00146500112,15.52229 -0.00146500112,9.9996582 C-0.00146500112,4.47702637 4.47604235,0 9.9992675,0 C15.5224927,0 20,4.47702637 20,9.9996582 C20,15.52229 15.5224927,20 9.9992675,20 Z M9.9992675,1.42927246 C5.26538495,1.42927246 1.42720409,5.26696777 1.42720409,10.0003418 C1.42720409,14.7338135 5.26538495,18.5714844 9.9992675,18.5714844 C14.73315,18.5714844 18.5713309,14.7338135 18.5713309,10.0003418 C18.5713309,5.26696777 14.73315,1.42927246 9.9992675,1.42927246 Z M10.7135532,14.2859619 L9.28488412,14.2859619 L9.28488412,10.7146484 L5.71328463,10.7146484 L5.71328463,9.28537598 L9.28488412,9.28537598 L9.28488412,5.71413574 L10.7135532,5.71413574 L10.7135532,9.28537598 L14.2852504,9.28537598 L14.2852504,10.7146484 L10.7135532,10.7146484 L10.7135532,14.2859619 Z" id="Fill-1" fill="#3CB9FF" mask="url(#mask-2)"></path>
                </g>
            </g>
        </g>
    </g>
</svg>