<?xml version="1.0" encoding="UTF-8"?>
<svg width="64px" height="40px" viewBox="0 0 64 40" version="1.1" xmlns="http://www.w3.org/2000/svg" xmlns:xlink="http://www.w3.org/1999/xlink">
    <title>编组 18</title>
    <g id="页面-1" stroke="none" stroke-width="1" fill="none" fill-rule="evenodd">
        <g id="1" transform="translate(-527.000000, -440.000000)">
            <g id="编组-21" transform="translate(336.000000, 440.000000)">
                <g id="编组-18" transform="translate(191.000000, 0.000000)">
                    <path d="M10.2555408,-4.14336123e-16 L53.7444592,4.14336123e-16 C57.3105342,-2.4074122e-16 58.6036791,0.371302445 59.9073828,1.06853082 C61.2110865,1.76575919 62.2342408,2.78891348 62.9314692,4.09261719 C63.6286976,5.39632089 64,6.68946584 64,10.2555408 L64,29.7444592 C64,33.3105342 63.6286976,34.6036791 62.9314692,35.9073828 C62.2342408,37.2110865 61.2110865,38.2342408 59.9073828,38.9314692 C58.6036791,39.6286976 57.3105342,40 53.7444592,40 L10.2555408,40 C6.68946584,40 5.39632089,39.6286976 4.09261719,38.9314692 C2.78891348,38.2342408 1.76575919,37.2110865 1.06853082,35.9073828 C0.371302445,34.6036791 1.60494146e-16,33.3105342 -2.76224082e-16,29.7444592 L2.76224082e-16,10.2555408 C-1.60494146e-16,6.68946584 0.371302445,5.39632089 1.06853082,4.09261719 C1.76575919,2.78891348 2.78891348,1.76575919 4.09261719,1.06853082 C5.39632089,0.371302445 6.68946584,2.4074122e-16 10.2555408,-4.14336123e-16 Z" id="矩形" fill="#3CB9FF"></path>
                    <g id="编组-16" transform="translate(22.000000, 10.000000)" fill="#FFFFFF">
                        <path d="M2,8 L18,8 C19.1045695,8 20,8.8954305 20,10 C20,11.1045695 19.1045695,12 18,12 L2,12 C0.8954305,12 1.3527075e-16,11.1045695 0,10 C-1.3527075e-16,8.8954305 0.8954305,8 2,8 Z" id="矩形"></path>
                        <path d="M2,8 L18,8 C19.1045695,8 20,8.8954305 20,10 C20,11.1045695 19.1045695,12 18,12 L2,12 C0.8954305,12 1.3527075e-16,11.1045695 0,10 C-1.3527075e-16,8.8954305 0.8954305,8 2,8 Z" id="矩形" transform="translate(10.000000, 10.000000) rotate(-270.000000) translate(-10.000000, -10.000000) "></path>
                    </g>
                </g>
            </g>
        </g>
    </g>
</svg>