<svg t="1649216113764" class="icon" viewBox="0 0 1365 1024" version="1.1" xmlns="http://www.w3.org/2000/svg" p-id="1353" width="200" height="200"><path d="M1157.531382 86.506528a3.470091 3.470091 0 0 0-1.706602-1.592829 1139.327625 1139.327625 0 0 0-277.948611-84.761243 4.209619 4.209619 0 0 0-4.494052 2.047923c-12.685743 22.754696-24.233751 46.078259-34.587138 69.97069a1056.216099 1056.216099 0 0 0-312.137542 0 703.120104 703.120104 0 0 0-35.099118-69.97069A4.380279 4.380279 0 0 0 487.064266 0.038683C391.096336 16.422064 297.631423 44.979207 209.172542 84.913699a3.925185 3.925185 0 0 0-1.820375 1.535942C30.320632 346.649589-18.203757 600.478222 5.631787 851.121198a4.550939 4.550939 0 0 0 1.763489 3.12877 1139.213852 1139.213852 0 0 0 340.922232 169.522485 4.437166 4.437166 0 0 0 4.778486-1.479055c26.338561-35.269779 49.662124-72.644367 69.743143-111.66867a4.209619 4.209619 0 0 0 0.17066-3.470092 4.323392 4.323392 0 0 0-2.503016-2.446129 751.587607 751.587607 0 0 1-106.491977-49.946558 4.323392 4.323392 0 0 1-0.455094-7.110842c7.167729-5.290467 14.221685-10.751594 21.161867-16.326495a4.266505 4.266505 0 0 1 4.437166-0.568867c223.394227 100.348209 465.333532 100.348209 686.054082 0a4.266505 4.266505 0 0 1 4.550939 0.51198c6.883296 5.631787 13.937251 11.092914 21.161868 16.383382 1.137735 0.853301 1.820376 2.218583 1.706602 3.640751a4.323392 4.323392 0 0 1-2.104809 3.470091c-34.01827 19.569039-69.62937 36.236853-106.548864 49.889671a4.323392 4.323392 0 0 0-2.503017 2.503016 4.209619 4.209619 0 0 0 0.227547 3.470092c20.42234 38.853643 43.689016 76.114458 69.686257 111.611783a4.380279 4.380279 0 0 0 4.778486 1.592829 1135.459327 1135.459327 0 0 0 341.434212-169.579372 4.266505 4.266505 0 0 0 1.820376-3.071884c28.44337-289.781053-47.671088-541.561763-201.89104-764.671556zM456.231653 698.494075c-67.240126 0-122.704698-60.755038-122.704697-135.390441 0-74.635403 54.383723-135.390441 122.704697-135.390441 68.832955 0 123.785546 61.267019 122.704698 135.390441 0 74.635403-54.383723 135.390441-122.704698 135.390441z m453.671751 0c-67.297013 0-122.704698-60.755038-122.704698-135.390441 0-74.635403 54.326837-135.390441 122.704698-135.390441 68.832955 0 123.785546 61.267019 122.704697 135.390441 0 74.635403-53.814856 135.390441-122.704697 135.390441z" fill="#000000" p-id="1354"></path></svg>