<?xml version="1.0" encoding="UTF-8"?>
<svg width="40px" height="40px" viewBox="0 0 40 40" version="1.1" xmlns="http://www.w3.org/2000/svg" xmlns:xlink="http://www.w3.org/1999/xlink">
    <title>discord-3</title>
    <g id="页面-1" stroke="none" stroke-width="1" fill="none" fill-rule="evenodd">
        <g id="1" transform="translate(-1685.000000, -272.000000)" fill="#738BD8">
            <g id="discord-3" transform="translate(1684.997070, 272.000000)">
                <path d="M20.001587,0 C31.048015,0 40.0029299,8.95425898 40.0029299,20.0001221 C40.0029299,31.045741 31.048015,40 20.001587,40 C8.95491486,40 0,31.045741 0,20.0001221 C0,8.95425898 8.95491486,0 20.001587,0 Z M23.6693855,10 L23.3411672,10.3373479 C23.3411672,10.3373479 26.8173051,11.3892849 28.8064177,13.2154764 C28.8064177,13.2154764 28.7995546,13.2111612 28.7859997,13.202906 L28.7254313,13.1666956 C28.163326,12.8357367 24.7257588,10.9327225 20.0001414,10.9327225 C15.2742658,10.9327225 11.8366761,12.8357367 11.2745688,13.1666956 L11.2140003,13.202906 C11.2004454,13.2111612 11.1935823,13.2154764 11.1935823,13.2154764 C13.1826949,11.3892849 16.6590591,10.3373479 16.6590591,10.3373479 L16.3306145,10 C13.0668765,10.0594909 10.1119499,12.3817892 10.1119499,12.3817892 C7.28040589,18.4564638 7.01698517,23.8242672 7.00089248,25.2759736 L7.00051287,25.5400056 C7.00098741,25.5879041 7.00169096,25.6219465 7.00217787,25.6415168 L7.0027308,25.6611783 L7.0027308,25.6611783 C9.32015066,28.7407502 12.6025877,28.9910757 13.4931325,28.9997489 L13.6037194,28.9996234 C13.6817115,28.9986146 13.7235394,28.9959274 13.7235394,28.9959274 L15.0946896,27.2095128 C12.6805509,26.6736873 11.1549384,24.4704291 11.1549384,24.4704291 C11.1549384,24.4704291 14.7857083,27.0109771 20.0001414,27.0109771 C25.214518,27.0109771 28.8451182,24.4704291 28.8451182,24.4704291 C28.8451182,24.4704291 27.3194491,26.6736873 24.9053104,27.2095128 L26.2766869,28.9959274 C26.2766869,28.9959274 26.3185125,28.9986146 26.3965004,28.9996234 L26.5070813,28.9997489 C27.3975786,28.9910757 30.6798493,28.7407502 32.9972692,25.6611783 L32.9978221,25.6415168 C32.998309,25.6219465 32.9990126,25.5879041 32.9994871,25.5400056 L32.9991075,25.2759736 C32.9830148,23.8242672 32.7195941,18.4564638 29.8880501,12.3817892 C29.8880501,12.3817892 26.9331235,10.0594909 23.6693855,10 Z M16.0023962,18.4558546 C17.2575582,18.4558546 18.2813096,19.5873455 18.2618462,20.9766886 C18.2618462,22.346434 17.2575582,23.497697 16.0023962,23.497697 C14.7663015,23.497697 13.7620135,22.346434 13.7620135,20.9766886 C13.7620135,19.5873455 14.7470645,18.4558546 16.0023962,18.4558546 Z M24.0557111,18.4558546 C25.3108731,18.4558546 26.3151611,19.5873455 26.3151611,20.9766886 C26.3151611,22.346434 25.3108731,23.497697 24.0557111,23.497697 C22.8196164,23.497697 21.8155547,22.346434 21.8155547,20.9766886 C21.8155547,19.5873455 22.8003793,18.4558546 24.0557111,18.4558546 Z" id="形状结合"></path>
            </g>
        </g>
    </g>
</svg>