<svg t="1650778398850" class="icon" viewBox="0 0 1024 1024" version="1.1" xmlns="http://www.w3.org/2000/svg" p-id="1973" width="200" height="200"><path d="M704 341.333333h64a64 64 0 0 1 64 64v362.666667a64 64 0 0 1-64 64H256a64 64 0 0 1-64-64V405.333333a64 64 0 0 1 64-64h64v64h-64v362.666667h512V405.333333h-64v-64z m-154.794667-212.266666l0.042667 347.456 74.005333-74.026667 45.226667 45.248-150.826667 150.848-150.848-150.826667 45.248-45.269333 73.173334 73.173333V129.066667h64z" p-id="1974"></path></svg>