<?xml version="1.0" encoding="UTF-8"?>
<svg width="20px" height="20px" viewBox="0 0 20 20" version="1.1" xmlns="http://www.w3.org/2000/svg" xmlns:xlink="http://www.w3.org/1999/xlink">
    <title>biaoqing-2</title>
    <defs>
        <polygon id="path-1" points="0 0 20 0 20 20 0 20"></polygon>
    </defs>
    <g id="页面-1" stroke="none" stroke-width="1" fill="none" fill-rule="evenodd">
        <g id="Projects-评论" transform="translate(-812.000000, -405.000000)">
            <g id="biaoqing-2" transform="translate(812.000000, 405.000000)">
                <g id="编组">
                    <mask id="mask-2" fill="white">
                        <use xlink:href="#path-1"></use>
                    </mask>
                    <g id="Clip-2"></g>
                    <polygon id="Fill-1" fill="#000000" mask="url(#mask-2)" points="18.6773384 15.8910199 18.6820384 15.8910199 18.6820384 15.8614199"></polygon>
                    <path d="M17.0738287,2.92591058 C13.1729559,-0.975303526 6.82528457,-0.975303526 2.92441172,2.92591058 C-0.977149992,6.82643589 -0.977149992,13.1735416 2.92441172,17.074067 C6.82528457,20.975311 13.1729559,20.975311 17.0738287,17.074067 C20.9753904,13.1735416 20.9753904,6.82643589 17.0738287,2.92591058 M16.0584325,16.05948 C12.7173858,19.400259 7.28016577,19.3995402 3.93944851,16.05948 C0.59801244,12.7180122 0.59801244,7.28232472 3.93944851,3.94085694 C7.28016577,0.600437306 12.7173858,0.599748517 16.0584325,3.94085694 C19.3995092,7.28127657 19.3995092,12.718701 16.0584325,16.05948" id="Fill-3" fill="#000000" mask="url(#mask-2)"></path>
                </g>
                <path d="M6.87769714,8.9464103 C7.47154653,8.9464103 7.95473052,8.46314957 7.95473052,7.86911352 C7.95473052,7.27426888 7.47154653,6.79028942 6.87769714,6.79028942 C6.2824401,6.79028942 5.79916627,7.27426888 5.79916627,7.86911352 C5.79916627,8.46314957 6.2824401,8.9464103 6.87769714,8.9464103" id="Fill-4" fill="#000000"></path>
                <path d="M13.0822671,8.94814725 C13.6768353,8.94814725 14.1607082,8.46383836 14.1607082,7.86968252 C14.1607082,7.27495767 13.6768353,6.79169694 13.0822671,6.79169694 C12.4884178,6.79169694 12.005114,7.27495767 12.005114,7.86968252 C12.005114,8.46383836 12.4884178,8.94814725 13.0822671,8.94814725" id="Fill-5" fill="#000000"></path>
                <path d="M13.1198245,12.5648913 L13.0609727,12.5840576 C12.0952037,13.0212293 11.059112,13.2437383 9.9842051,13.2437383 C8.87383733,13.2437383 7.82369909,13.0190132 6.86215307,12.5776189 L6.80399009,12.5598601 C6.7678404,12.5500374 6.71893198,12.5358723 6.65798365,12.5358723 C6.30445338,12.5358723 6.0174721,12.822828 6.0174721,13.1749492 C6.0174721,13.3421154 6.09609096,13.5100902 6.22583453,13.6361986 L6.21798762,13.6751601 L6.38166459,13.7488606 C7.5295897,14.2682678 8.7782368,14.5417472 9.99205201,14.5417472 C11.2285394,14.5417472 12.4402281,14.2752755 13.6094477,13.7424219 C13.8148751,13.6297599 13.943211,13.4136896 13.943211,13.1791418 C13.943211,12.7661975 13.5697939,12.4267141 13.1198245,12.5648913" id="Fill-6" fill="#000000"></path>
            </g>
        </g>
    </g>
</svg>