<?xml version="1.0" encoding="UTF-8"?>
<svg width="40px" height="39px" viewBox="0 0 40 39" version="1.1" xmlns="http://www.w3.org/2000/svg" xmlns:xlink="http://www.w3.org/1999/xlink">
    <title>github</title>
    <defs>
        <polygon id="path-1" points="0 0 40 0 40 39 0 39"></polygon>
    </defs>
    <g id="页面-1" stroke="none" stroke-width="1" fill="none" fill-rule="evenodd">
        <g id="1" transform="translate(-1749.000000, -272.000000)">
            <g id="github" transform="translate(1749.000000, 272.000000)">
                <mask id="mask-2" fill="white">
                    <use xlink:href="#path-1"></use>
                </mask>
                <g id="Clip-2"></g>
                <path d="M19.9986571,0 C8.95271743,0 -0.00292990567,8.95092656 -0.00292990567,19.9939384 C-0.00292990567,28.8274204 5.72869806,36.3225418 13.6754812,38.9655329 C14.6756045,39.1504862 15.0431612,38.5319252 15.0431612,38.0033758 C15.0431612,37.5272518 15.0244586,35.9515126 15.0157177,34.280783 C9.45021541,35.4904231 8.2763487,31.9215431 8.2763487,31.9215431 C7.36627117,29.6109211 6.05621268,28.9961676 6.05621268,28.9961676 C4.24103846,27.7552383 6.19372292,27.7802306 6.19372292,27.7802306 C8.20139195,27.9215449 9.2590879,29.8408802 9.2590879,29.8408802 C11.042961,32.8974167 13.9381472,32.0140441 15.0793943,31.5028234 C15.2581186,30.2107866 15.776956,29.3285367 16.3496061,28.8287871 C11.9066972,28.3238633 7.23637869,26.6081279 7.23637869,18.9479202 C7.23637869,16.7648471 8.01768686,14.9816518 9.29781148,13.5809569 C9.0902765,13.0771558 8.40531338,11.0441833 9.49162474,8.29004456 C9.49162474,8.29004456 11.1717303,7.75270877 14.9932063,10.339223 C16.5882469,9.89570618 18.2996537,9.67453354 19.9997803,9.66579598 C21.6985884,9.67321559 23.4113136,9.89570618 25.0101631,10.339223 C28.8280255,7.75270877 30.5043222,8.29004456 30.5043222,8.29004456 C31.593124,11.0441833 30.9081609,13.0771558 30.7006259,13.5809569 C31.9831921,14.9804803 32.7595683,16.7648471 32.7595683,18.9479202 C32.7595683,26.6268234 28.0804601,28.3175664 23.6263198,28.8137038 C24.3439026,29.4347543 24.9827197,30.6506913 24.9827197,32.5162832 C24.9827197,35.1916375 24.9588898,37.344788 24.9588898,38.0033758 C24.9588898,38.5357326 25.319024,39.1592237 26.3328202,38.9630434 C34.2758433,36.3164402 40,28.8249797 40,19.9939384 C40,8.95092656 31.0443527,0 19.9986571,0 Z" id="Fill-1" fill="#000000" mask="url(#mask-2)"></path>
            </g>
        </g>
    </g>
</svg>