<?xml version="1.0" encoding="UTF-8"?>
<svg width="16px" height="16px" viewBox="0 0 16 16" version="1.1" xmlns="http://www.w3.org/2000/svg" xmlns:xlink="http://www.w3.org/1999/xlink">
    <title>duoyuyan</title>
    <g id="页面-1" stroke="none" stroke-width="1" fill="none" fill-rule="evenodd">
        <g id="1" transform="translate(-29.000000, -24.000000)" fill="#000000">
            <g id="编组-32" transform="translate(18.000000, 16.000000)">
                <path d="M25.0326538,21.2560028 C26.3050311,19.7999677 27,17.9551295 27,16.0033643 C27,13.8674445 26.1680937,11.8592592 24.6575265,10.3488871 C23.1702116,8.86180869 21.2000653,8.03309071 19.1005755,8.0079828 C19.0661004,7.99720946 18.9161256,7.99738864 18.8814713,8.00822917 C16.7903819,8.03902612 14.829084,8.86713936 13.3470109,10.3488871 C11.8619136,11.8338825 11.0333227,13.7999823 11.0058591,15.8956757 C10.9981532,15.9252408 10.9980636,16.0497501 11.0055007,16.0788896 C11.0248328,18.1865434 11.8542973,20.1652531 13.3470109,21.6578414 C14.8576005,23.1681239 16.8659853,24 19.0023023,24 C21.1385521,24 23.1469369,23.1681239 24.6575265,21.6578414 C24.7676051,21.5477787 24.8735619,21.4348267 24.9762929,21.3197021 C24.9853877,21.3115717 24.9943257,21.3029933 25.0027261,21.2938102 C25.0137474,21.281805 25.0235366,21.2690383 25.0326538,21.2560028 Z M11.7469293,16.3548303 L15.1070806,16.3548303 C15.1307808,17.531677 15.2728928,18.6351934 15.5103883,19.6179857 C14.4048537,19.9169513 13.7036798,20.3055753 13.3406266,20.5480313 C12.4074902,19.3882292 11.8227119,17.9372785 11.7469293,16.3548303 Z M13.331711,11.4697394 C13.6917848,11.7126209 14.3933844,12.1051197 15.5062665,12.4060787 C15.2733408,13.3760147 15.1329761,14.4627327 15.1075958,15.6212133 L11.7483181,15.6212133 C11.8298802,14.0557202 12.4098647,12.6201791 13.331711,11.4697394 Z M26.2562193,15.6212133 L22.8969417,15.6212133 C22.8715613,14.4631807 22.7312862,13.3767986 22.4985397,12.4071314 C23.6088681,12.1079866 24.3127526,11.71831 24.6771274,11.4750029 C25.596532,12.6245467 26.1747468,14.058184 26.2562193,15.6212133 Z M22.1630398,15.6212133 L19.3582768,15.6212133 L19.3582768,12.8252532 C20.2938773,12.8056552 21.0983871,12.7095911 21.7824019,12.5737933 C22.0075544,13.5080272 22.1381075,14.5424465 22.1630398,15.6212133 Z M19.3582768,12.0916362 L19.3582768,8.79112129 C20.0185017,8.97747084 20.6625307,9.67276523 21.1668894,10.7623726 C21.3248389,11.1035132 21.4652036,11.4727183 21.5874459,11.8647691 C20.9596801,11.9861203 20.2201108,12.0727325 19.3582768,12.0916362 Z M18.6244645,8.79750465 L18.6244645,12.0909419 C17.7731366,12.0707167 17.040646,11.9834101 16.4180548,11.8615438 C16.5400283,11.4707025 16.6801242,11.1025501 16.8376481,10.7623726 C17.3364961,9.68474804 17.9719455,8.99285812 18.6244645,8.79750465 Z M18.6244645,12.8248948 L18.6244645,15.6212133 L15.8414976,15.6212133 C15.8664299,14.5422673 15.9970726,13.5076913 16.2222252,12.5733677 C16.9002141,12.7083592 17.6973764,12.8042441 18.6244645,12.8248948 Z M15.8408928,16.3548303 L18.6244645,16.3548303 L18.6244645,19.1978481 C17.6996389,19.2192828 16.9037086,19.315526 16.2263469,19.4506295 C15.9964678,18.5030017 15.8641674,17.4514481 15.8408928,16.3548303 Z M18.6244645,19.9318234 L18.6244645,23.2092463 C17.9718559,23.0138704 17.3364961,22.3220029 16.8376481,21.2443783 C16.6820507,20.908322 16.5435452,20.5449628 16.4226022,20.1593849 C17.0433565,20.0388177 17.7740998,19.9523846 18.6244645,19.9318234 Z M19.3582768,23.2156296 L19.3582768,19.9306812 C20.2166834,19.9490473 20.955043,20.0357716 21.5825401,20.1574587 C21.4614402,20.5437309 21.3227332,20.9077844 21.1668894,21.2443783 C20.6625307,22.3339857 20.0185017,23.0292801 19.3582768,23.2156296 Z M19.3582768,19.1969746 L19.3582768,16.3548303 L22.1636447,16.3548303 C22.14037,17.4496115 22.0085177,18.499418 21.779333,19.4458139 C21.096371,19.3108001 20.2928244,19.2157887 19.3582768,19.1969746 Z M22.8974569,16.3548303 L26.2576082,16.3548303 C26.1820048,17.9341428 25.5993321,19.3825626 24.6695111,20.5411999 C24.3026946,20.296213 23.6007366,19.9087313 22.49565,19.6117815 C22.7321599,18.630557 22.8738462,17.5292132 22.8974569,16.3548303 Z M24.1852685,10.9202098 C23.8567801,11.1275684 23.2478311,11.4462217 22.3061151,11.6995854 C21.9602883,10.5697292 21.4797195,9.63889978 20.9071945,8.99435877 C22.1688193,9.33749281 23.2948284,10.0127636 24.1852685,10.9202098 Z M17.097343,8.99435877 C16.525602,9.63793667 16.0455484,10.5670191 15.6999232,11.6946803 C14.7608282,11.43948 14.1520584,11.1195276 13.8257653,10.9136472 C14.7151525,10.0095159 15.8387871,9.33661929 17.097343,8.99435877 Z M13.8341656,21.1017493 C14.1618476,20.8950177 14.7678173,20.5779547 15.7038434,20.3252629 C16.0492222,21.4469887 16.5277973,22.3712556 17.097343,23.0123921 C15.8427297,22.6711843 14.7222312,22.0016026 13.8341656,21.1017493 Z M20.9071945,23.0123921 C21.4770985,22.3708972 21.9558305,21.4458688 22.3012989,20.3231799 C23.2328672,20.5744382 23.841973,20.8899334 24.1745832,21.0973817 C23.2858904,21.9994076 22.1637343,22.6706468 20.9071945,23.0123921 Z" id="duoyuyan"></path>
            </g>
        </g>
    </g>
</svg>