<?xml version="1.0" encoding="UTF-8"?>
<svg width="16px" height="15px" viewBox="0 0 16 15" version="1.1" xmlns="http://www.w3.org/2000/svg" xmlns:xlink="http://www.w3.org/1999/xlink">
    <title>a-aixinai</title>
    <defs>
        <polygon id="path-1" points="0 0 16 0 16 14.6666667 0 14.6666667"></polygon>
    </defs>
    <g id="页面-1" stroke="none" stroke-width="1" fill="none" fill-rule="evenodd">
        <g id="home" transform="translate(-749.000000, -792.000000)">
            <g id="编组-37" transform="translate(576.000000, 584.000000)">
                <g id="编组-2" transform="translate(173.000000, 207.000000)">
                    <g id="a-aixinai" transform="translate(0.000000, 1.000000)">
                        <mask id="mask-2" fill="white">
                            <use xlink:href="#path-1"></use>
                        </mask>
                        <g id="Clip-2"></g>
                        <path d="M7.99913545,14.6666667 C7.5504947,14.6666667 7.12839785,14.4878185 6.8108714,14.1628153 L1.5102804,8.73724579 C-0.437962704,6.74348501 -0.512918395,3.51852677 1.34271186,1.54857749 C2.2714459,0.56263849 3.51896263,0.0128309357 4.85537002,0.000282274785 C4.87097997,0.000282274785 4.88642708,0 4.90189745,0 C6.04316879,0 7.12365205,0.392886301 7.99932156,1.11737503 C8.88671597,0.383218831 9.97673735,-0.0120997057 11.1429241,0.000282274785 C12.4795874,0.0126404437 13.7274764,0.56263849 14.6561174,1.54857749 C16.5114685,3.51888394 16.4364197,6.74348501 14.4886186,8.73724579 L9.18749255,14.1628153 C8.87017547,14.487628 8.44805536,14.6666667 7.99913545,14.6666667 Z" id="Fill-1" fill="#FF5085" mask="url(#mask-2)"></path>
                    </g>
                </g>
            </g>
        </g>
    </g>
</svg>