<?xml version="1.0" encoding="UTF-8"?>
<svg width="32px" height="32px" viewBox="0 0 32 32" version="1.1" xmlns="http://www.w3.org/2000/svg" xmlns:xlink="http://www.w3.org/1999/xlink">
    <title>memes-2</title>
    <g id="页面-1" stroke="none" stroke-width="1" fill="none" fill-rule="evenodd" opacity="0.25">
        <g id="画板" transform="translate(-238.000000, -255.000000)">
            <g id="memes-2" transform="translate(238.000000, 255.000000)">
                <rect id="矩形" x="0" y="0" width="32" height="32"></rect>
                <rect id="矩形" stroke="#000000" stroke-width="2.66666667" x="2.66666667" y="4" width="26.6666667" height="24" rx="2.66666667"></rect>
                <g id="GIF" transform="translate(7.792000, 11.568000)" fill="#000000" fill-rule="nonzero">
                    <path d="M4.24918033,2.85430762 L6.05901639,2.85430762 C6.05901639,1.93655089 5.83169399,1.23139378 5.37704918,0.738836265 C4.92240437,0.246278755 4.17923497,0 3.14754098,0 C2.5442623,0 2.04153005,0.0968275447 1.63934426,0.290482634 C1.23715847,0.484137724 0.913661202,0.772515411 0.668852459,1.1556157 C0.424043716,1.53871598 0.25136612,2.01653887 0.150819672,2.58908435 C0.050273224,3.16162983 0,3.82679296 0,4.58457375 C0,5.36761389 0.0349726776,6.05593144 0.104918033,6.64952639 C0.174863388,7.24312134 0.312568306,7.74199369 0.518032787,8.14614344 C0.723497268,8.55029319 1.00765027,8.84919561 1.3704918,9.0428507 C1.73333333,9.23650579 2.20327869,9.33333333 2.78032787,9.33333333 C3.22622951,9.33333333 3.60874317,9.2596602 3.92786885,9.11231394 C4.24699454,8.96496767 4.52021858,8.71447903 4.74754098,8.36084799 L4.77377049,8.36084799 L4.77377049,9.19440686 L6.16393443,9.19440686 L6.16393443,4.33198015 L3.10819672,4.33198015 L3.10819672,5.67072621 L4.35409836,5.67072621 L4.35409836,6.59269283 C4.35409836,6.83686664 4.3147541,7.04946625 4.23606557,7.23049166 C4.15737705,7.41151707 4.05901639,7.56096828 3.94098361,7.67884529 C3.82295082,7.7967223 3.69617486,7.88513006 3.56065574,7.94406856 C3.42513661,8.00300707 3.30054645,8.03247632 3.18688525,8.03247632 C2.91584699,8.03247632 2.69508197,7.9503834 2.52459016,7.78619756 C2.35409836,7.62201173 2.22295082,7.38625771 2.13114754,7.0789355 C2.03934426,6.77161329 1.97595628,6.39903774 1.94098361,5.96120884 C1.90601093,5.52337994 1.88852459,5.03503233 1.88852459,4.49616599 C1.88852459,3.3679146 1.98907104,2.5596151 2.19016393,2.07126748 C2.39125683,1.58291986 2.71912568,1.33874605 3.17377049,1.33874605 C3.36612022,1.33874605 3.53005464,1.38715983 3.66557377,1.48398737 C3.8010929,1.58081492 3.91256831,1.70290182 4,1.85024808 C4.08743169,1.99759435 4.15081967,2.15967524 4.19016393,2.33649075 C4.2295082,2.51330627 4.24918033,2.68591189 4.24918033,2.85430762 Z" id="路径"></path>
                    <polygon id="路径" points="7.47540984 9.19440686 9.36393443 9.19440686 9.36393443 0.176815516 7.47540984 0.176815516"></polygon>
                    <polygon id="路径" points="10.7672131 0.176815516 10.7672131 9.19440686 12.6557377 9.19440686 12.6557377 5.27920613 15.8032787 5.27920613 15.8032787 3.78890392 12.6557377 3.78890392 12.6557377 1.66711773 16 1.66711773 16 0.176815516"></polygon>
                </g>
            </g>
        </g>
    </g>
</svg>