<?xml version="1.0" encoding="UTF-8"?>
<svg width="32px" height="30px" viewBox="0 0 32 30" version="1.1" xmlns="http://www.w3.org/2000/svg" xmlns:xlink="http://www.w3.org/1999/xlink">
    <title>MetaMask</title>
    <defs>
        <polygon id="path-1" points="0 0 32 0 32 14.9759375 0 14.9759375"></polygon>
    </defs>
    <g id="页面-1" stroke="none" stroke-width="1" fill="none" fill-rule="evenodd">
        <g id="钱包" transform="translate(-741.000000, -497.000000)">
            <g id="编组-40" transform="translate(679.000000, 347.000000)">
                <g id="MetaMask" transform="translate(62.000000, 150.000000)">
                    <polygon id="Fill-1" fill="#E17726" points="20.2396321 3.85109074 17.9153965 9.37575984 30.417265 0"></polygon>
                    <polygon id="Fill-2" fill="#E27625" points="13.9708841 9.46299862 11.7561879 3.85019738 1.57949261 0"></polygon>
                    <polygon id="Fill-3" fill="#E27625" points="22.5895336 26.8881083 29.7124078 28.8755676 31.7512705 21.8506713 25.9158751 21.7379134"></polygon>
                    <polygon id="Fill-4" fill="#E27625" points="0.257362914 21.8506713 2.28450605 28.8755676 9.39530898 26.8881083 6.08178099 21.7379134"></polygon>
                    <polygon id="Fill-5" fill="#E27625" points="9.01231171 13.037652 7.03353155 16.0641305 14.0815173 16.3895862 13.8464998 8.70208697"></polygon>
                    <polygon id="Fill-6" fill="#E27625" points="22.9844459 13.037652 18.0753303 8.61302263 17.9153965 16.388654 24.9641245 16.0632371"></polygon>
                    <polygon id="Fill-7" fill="#E27625" points="9.39530898 26.8881083 13.6616814 24.8008255 9.98968917 21.9007384"></polygon>
                    <polygon id="Fill-8" fill="#E27625" points="18.3359747 24.8008255 22.5895336 26.8881083 22.0079669 21.9007384"></polygon>
                    <polygon id="Fill-9" fill="#D5BFB2" points="22.5895336 26.8881083 18.3359747 24.8008255 18.682524 27.6008949 18.6449821 28.7890668"></polygon>
                    <polygon id="Fill-10" fill="#D5BFB2" points="9.39530898 26.8881083 13.3517755 28.7881734 13.3270471 27.6008949 13.6616814 24.8008255"></polygon>
                    <polygon id="Fill-11" fill="#233447" points="13.4267029 20.0507404 9.89097089 19.0015446 12.38811 17.8378042"></polygon>
                    <polygon id="Fill-12" fill="#233447" points="18.5709532 20.0507404 19.6086476 17.8378042 22.1204362 19.0015446"></polygon>
                    <polygon id="Fill-13" fill="#CC6228" points="9.39530898 26.8881083 10.0135191 21.7379134 6.08178099 21.8506713"></polygon>
                    <polygon id="Fill-14" fill="#CC6228" points="21.9832385 21.7379134 22.5895336 26.8890017 25.9158751 21.8506713"></polygon>
                    <polygon id="Fill-15" fill="#CC6228" points="24.9641245 16.0632371 17.914498 16.3877607 18.5709532 20.0516338 19.6095461 17.8378042 22.1194986 19.0006512"></polygon>
                    <polygon id="Fill-16" fill="#CC6228" points="9.89007238 19.0006512 12.38811 17.8378042 13.4257653 20.0507404 14.0824158 16.388654 7.03353155 16.0632371"></polygon>
                    <polygon id="Fill-17" fill="#E27525" points="7.03353155 16.0632371 9.98879067 21.8998062 9.89007238 19.0006512"></polygon>
                    <polygon id="Fill-18" fill="#E27525" points="22.1194986 19.0006512 22.0079669 21.9007384 24.9641245 16.0632371"></polygon>
                    <polygon id="Fill-19" fill="#E27525" points="14.0824158 16.3877607 13.4257653 20.0516338 14.255163 24.3753908 14.4407237 18.6751955"></polygon>
                    <polygon id="Fill-20" fill="#E27525" points="17.9153965 16.3877607 17.5688473 18.6633487 17.742493 24.3753908 18.5700547 20.0507404"></polygon>
                    <polygon id="Fill-21" fill="#F5841F" points="18.5709532 20.0507404 17.742493 24.3753908 18.3359747 24.8008255 22.0088654 21.9007384 22.1204362 19.0006512"></polygon>
                    <polygon id="Fill-22" fill="#F5841F" points="9.89007238 19.0006512 9.98879067 21.9007384 13.6607828 24.8008255 14.255163 24.3762842 13.4257653 20.0507404"></polygon>
                    <polygon id="Fill-23" fill="#C0AC9D" points="18.6449821 28.7890668 18.682524 27.6008949 18.3597656 27.3262831 13.6371483 27.3262831 13.3279456 27.6008949 13.352674 28.7890668 9.39530898 26.8890017 10.7806074 28.0381763 13.5867539 30 18.3980887 30 21.2170486 28.0381763 22.5904321 26.8881083"></polygon>
                    <polygon id="Fill-24" fill="#1D1D1D" points="18.3359747 24.8008255 17.7415945 24.3753908 14.255163 24.3753908 13.6607828 24.8008255 13.3270471 27.6008949 13.6362107 27.3253897 18.3607031 27.3253897 18.682524 27.6000016"></polygon>
                    <g id="编组">
                        <mask id="mask-2" fill="white">
                            <use xlink:href="#path-1"></use>
                        </mask>
                        <g id="Clip-26"></g>
                        <polygon id="Fill-25" fill="#763E1A" mask="url(#mask-2)" points="18.3350372 9.06304419 22.9853444 13.0385453 29.5523177 14.9750441 30.9969566 13.2631289 30.3679644 12.799435 31.3691718 11.8758926 30.6029819 11.275825 31.6041502 10.5003476 30.9495312 9.98767419 32 4.81199902 30.417265 0.000893362318"></polygon>
                        <polygon id="Fill-27" fill="#763E1A" mask="url(#mask-2)" points="-0.00234392454 4.81289238 1.0611337 9.98856755 0.380848672 10.5003476 1.395768 11.275825 0.627585794 11.8758926 1.62879316 12.8003672 0.998863441 13.2640222 2.44627591 14.9759375 9.01231171 13.0394776 13.6616814 9.06304419 1.57949261 0"></polygon>
                    </g>
                    <polygon id="Fill-28" fill="#F5841F" points="24.963187 16.0632371 22.0088654 21.9016317 25.9158751 21.8506713 31.752169 21.8506713 29.5514192 14.9750441 22.9853444 13.0385453"></polygon>
                    <polygon id="Fill-29" fill="#F5841F" points="2.44627591 14.9750441 0.258300484 21.8506713 6.08271856 21.8506713 9.98879067 21.9007384 7.03353155 16.0641305 9.01231171 13.0385453"></polygon>
                    <polygon id="Fill-30" fill="#F5841F" points="17.9153965 16.3877607 18.3359747 9.06304419 20.2396321 3.85019738 11.758024 3.85019738 13.6616814 9.06304419 14.0824158 16.3877607 14.2432481 18.6879356 14.255163 24.3753908 17.7415945 24.3753908 17.754408 18.6879356"></polygon>
                </g>
            </g>
        </g>
    </g>
</svg>