<?xml version="1.0" encoding="UTF-8"?>
<svg width="32px" height="32px" viewBox="0 0 32 32" version="1.1" xmlns="http://www.w3.org/2000/svg" xmlns:xlink="http://www.w3.org/1999/xlink">
    <title>Notifications-2</title>
    <g id="页面-1" stroke="none" stroke-width="1" fill="none" fill-rule="evenodd" opacity="0.25">
        <g id="画板" transform="translate(-398.000000, -255.000000)">
            <g id="Notifications-2" transform="translate(398.000000, 255.000000)">
                <rect id="矩形" x="0" y="0" width="32" height="32"></rect>
                <path d="M16,4 C21.8910373,4 26.6666667,8.77562934 26.6666667,14.6666667 L26.6666667,25.3333333 L26.6666667,25.3333333 L5.33333333,25.3333333 L5.33333333,14.6666667 C5.33333333,8.77562934 10.1089627,4 16,4 Z" id="矩形" stroke="#000000" stroke-width="2.66666667"></path>
                <path d="M16,25.3333333 C17.8409492,25.3333333 19.3333333,26.8257175 19.3333333,28.6666667 L19.3333333,30.6666667 L19.3333333,30.6666667 L12.6666667,30.6666667 L12.6666667,28.6666667 C12.6666667,26.8257175 14.1590508,25.3333333 16,25.3333333 Z" id="矩形" stroke="#000000" stroke-width="2.66666667" transform="translate(16.000000, 28.000000) rotate(-180.000000) translate(-16.000000, -28.000000) "></path>
                <path d="M16,1.33333333 C16.9204746,1.33333333 17.6666667,2.07952542 17.6666667,3 L17.6666667,4 L17.6666667,4 L14.3333333,4 L14.3333333,3 C14.3333333,2.07952542 15.0795254,1.33333333 16,1.33333333 Z" id="矩形" stroke="#000000" stroke-width="2.66666667" fill="#ADFF56" transform="translate(16.000000, 2.666667) rotate(-360.000000) translate(-16.000000, -2.666667) "></path>
            </g>
        </g>
    </g>
</svg>