<?xml version="1.0" encoding="UTF-8"?>
<svg width="24px" height="22px" viewBox="0 0 24 22" version="1.1" xmlns="http://www.w3.org/2000/svg" xmlns:xlink="http://www.w3.org/1999/xlink">
    <title>Opensea</title>
    <defs>
        <polygon id="path-1" points="0 0 24 0 24 22 0 22"></polygon>
    </defs>
    <g id="页面-1" stroke="none" stroke-width="1" fill="none" fill-rule="evenodd">
        <g id="1" transform="translate(-547.000000, -688.000000)">
            <g id="编组-37" transform="translate(335.000000, 584.000000)">
                <g id="编组-9" transform="translate(164.000000, 104.000000)">
                    <g id="Opensea" transform="translate(48.000000, 0.000000)">
                        <mask id="mask-2" fill="white">
                            <use xlink:href="#path-1"></use>
                        </mask>
                        <g id="Clip-2"></g>
                        <path d="M1.42668827,12.5620114 L1.5094288,12.4282019 L6.57450323,4.35967212 C6.60849013,4.30452493 6.66949077,4.27307193 6.73312832,4.27772721 C6.79688307,4.2823825 6.85284427,4.32248955 6.87871533,4.38181456 C7.72425681,6.31265268 8.45433071,8.71549468 8.11235212,10.2100194 C7.96632562,10.8246958 7.56736036,11.658618 7.1159791,12.4282019 C7.05758608,12.5403465 6.9946517,12.6499247 6.92735177,12.7566977 C6.89497631,12.8057572 6.84059726,12.8350318 6.78258513,12.8346916 L1.57385743,12.8346916 C1.50989759,12.8355988 1.4505963,12.8005051 1.41971509,12.7433884 C1.38892178,12.6862717 1.3915587,12.6165618 1.42668827,12.5620114 Z" id="Fill-1" fill="#000000" mask="url(#mask-2)"></path>
                        <path d="M23.9988573,14.0638772 L23.9988573,15.3378729 C23.9988573,15.4107161 23.9569597,15.4766958 23.89174,15.506418 C23.4987224,15.6762761 22.157939,16.305724 21.5982977,17.0951525 C20.1747738,19.1137547 19.0870463,22 16.654873,22 L6.50755488,22 C2.90675941,21.9929872 -0.00714896983,19.0152477 -0.00176541181,15.3477803 L-0.00176541181,15.2288617 C-0.00176541181,15.1309515 0.0761775474,15.0516924 0.172307752,15.0516924 L5.82863714,15.0516924 C5.93941688,15.0516924 6.02332937,15.1582267 6.01119956,15.2696849 C5.97217322,15.6508511 6.04278395,16.0352998 6.21432992,16.3763888 C6.55012641,17.0703243 7.24735607,17.5040713 7.9980272,17.5040713 L10.7989584,17.5040713 L10.7989584,15.2795923 L8.03087144,15.2795923 C7.96471417,15.2794729 7.90406512,15.2418129 7.8736234,15.1818911 C7.84306449,15.1219692 7.84798673,15.0497228 7.8861048,14.9945756 C7.91540386,14.9474856 7.95065062,14.8992319 7.98715725,14.8434878 C8.24879782,14.4641718 8.6222436,13.8769199 8.99442952,13.20641 C9.24769056,12.7529675 9.49570708,12.2720112 9.69291903,11.7862504 C9.73297084,11.6982476 9.76593228,11.6090811 9.79763386,11.5210485 C9.84993267,11.3649771 9.90703653,11.222424 9.94606288,11.0761109 C9.98728665,10.9547751 10.0189882,10.8258596 10.0505726,10.706941 C10.1443003,10.2955752 10.1844693,9.85809798 10.1844693,9.40570001 C10.1848209,9.22572559 10.1766758,9.0458407 10.1600925,8.866672 C10.1493397,8.67258253 10.1306762,8.47908989 10.1041313,8.2866417 C10.0854678,8.11341147 10.0595967,7.94101681 10.026313,7.76999486 C9.98476693,7.50900062 9.93153055,7.25021466 9.86698472,6.9942338 L9.84501043,6.89504047 C9.7962568,6.72028832 9.75734765,6.5505794 9.70150365,6.37338025 C9.54642374,5.83089062 9.36866637,5.29547344 9.16861241,4.76847158 C9.09914435,4.56531028 9.01880633,4.37190716 8.93972818,4.17877262 C8.82045172,3.88745936 8.70006189,3.62237683 8.59168468,3.37197634 C8.53891708,3.26544199 8.48787813,3.15795271 8.43842132,3.04977707 C8.38486264,2.93064958 8.32937023,2.81244718 8.27179758,2.69531908 C8.23288844,2.60728649 8.18653733,2.52558032 8.15504084,2.44375477 L7.81297435,1.79935624 C7.79155674,1.75984602 7.79533632,1.71099539 7.82270164,1.6754541 C7.84992047,1.6397636 7.8954805,1.62427583 7.93840362,1.63582452 L10.0798717,2.22576221 L10.0846767,2.22576221 L10.0920015,2.22808986 L10.3742393,2.30746839 L10.6846042,2.39794799 L10.7989584,2.43011718 L10.7989584,1.13257653 C10.7989584,0.506739444 11.2903915,0 11.8988157,0 C12.1912203,0 12.4717295,0.119037963 12.6774088,0.330823478 C12.8837621,0.54484711 12.9991125,0.832877797 12.998673,1.1326959 L12.998673,3.05574538 L13.2261802,3.12160569 C13.2444921,3.12638034 13.2627161,3.13512392 13.2786255,3.14619513 L13.5158599,3.3309442 C13.5960808,3.39659562 13.6823958,3.47585479 13.7869934,3.55768033 C14.1058551,3.82171841 14.4161321,4.09915535 14.7154219,4.38799176 C15.0634654,4.71765142 15.4528206,5.10547226 15.8250065,5.53304206 C15.9312156,5.65369147 16.0346706,5.77678788 16.1352835,5.9023313 C16.2398811,6.03372367 16.3495182,6.16263919 16.4455312,6.29143534 C16.5708726,6.46129347 16.7071718,6.63834341 16.8251591,6.82440551 C16.8798897,6.91112507 16.9444356,7.00145545 16.9992541,7.08948804 C17.1512283,7.32377409 17.2850371,7.565431 17.4128689,7.80825173 C17.4675702,7.92108265 17.5222716,8.0437016 17.5710252,8.16142653 C17.7134186,8.487356 17.8240811,8.8156131 17.8970944,9.14667531 C17.9189515,9.21766837 17.9344214,9.29075034 17.9433283,9.36478724 L17.9433283,9.38087183 C17.9664746,9.47982643 17.9750299,9.58274995 17.9835266,9.68815033 C18.0314599,10.176209 17.9719535,10.6689527 17.8095488,11.1305717 C17.7607952,11.2693946 17.7121587,11.4132309 17.6512753,11.5519643 C17.5310906,11.8404725 17.3865583,12.1178796 17.2193486,12.3809926 C17.1629186,12.4832297 17.1029435,12.5832288 17.0393059,12.68093 C16.969955,12.7850174 16.8969418,12.8816443 16.8324839,12.9783011 C16.7436784,13.0997562 16.6499507,13.2285524 16.5550804,13.3426665 C16.4698201,13.4627489 16.3809854,13.5830402 16.2849724,13.6895746 C16.156789,13.8460339 16.0249433,13.9993001 15.8895523,14.1493434 C15.8087455,14.2471342 15.7234853,14.3409859 15.6339767,14.4307194 C15.5487164,14.5297039 15.4611708,14.6165428 15.379778,14.6983683 C15.2692327,14.8110799 15.1560504,14.9210162 15.0402313,15.0279086 L14.8212794,15.2336662 C14.7884352,15.2624334 14.7465375,15.2781898 14.7032921,15.2783091 L12.998673,15.2783091 L12.998673,17.5052352 L15.1425436,17.5052352 C15.6231067,17.5052352 16.079293,17.3316468 16.4467911,17.0131778 C16.5721324,16.90163 17.1220464,16.4170629 17.772925,15.6847809 C17.7952509,15.6604004 17.8239639,15.643152 17.8556655,15.635244 L23.7774151,13.8903187 C23.8301534,13.8752786 23.8867005,13.8861111 23.9304147,13.9196828 C23.9740117,13.9532546 24,14.005716 24,14.0614302 L23.9988573,14.0638772 Z" id="Fill-3" fill="#000000" mask="url(#mask-2)"></path>
                    </g>
                </g>
            </g>
        </g>
    </g>
</svg>