<?xml version="1.0" standalone="no"?><!DOCTYPE svg PUBLIC "-//W3C//DTD SVG 1.1//EN" "http://www.w3.org/Graphics/SVG/1.1/DTD/svg11.dtd"><svg t="1652508001044" class="icon" viewBox="0 0 1102 1024" version="1.1" xmlns="http://www.w3.org/2000/svg" p-id="65597" xmlns:xlink="http://www.w3.org/1999/xlink" width="215.234375" height="200"><defs><style type="text/css">@font-face { font-family: feedback-iconfont; src: url("//at.alicdn.com/t/font_1031158_u69w8yhxdu.woff2?t=1630033759944") format("woff2"), url("//at.alicdn.com/t/font_1031158_u69w8yhxdu.woff?t=1630033759944") format("woff"), url("//at.alicdn.com/t/font_1031158_u69w8yhxdu.ttf?t=1630033759944") format("truetype"); }
</style></defs><path d="M986.197339 0H288.857546a116.924511 116.924511 0 0 0-116.798921 116.798921v67.630343h-55.259704A116.924511 116.924511 0 0 0 0 301.290979v470.96339a116.924511 116.924511 0 0 0 116.798921 116.798921h68.321089l84.145459 108.635555a67.630343 67.630343 0 0 0 106.751702 0l84.208254-108.69835h339.09364a116.924511 116.924511 0 0 0 116.798921-116.798921v-86.845649h70.079353a116.924511 116.924511 0 0 0 116.79892-116.798921V116.798921A116.924511 116.924511 0 0 0 986.197339 0z m-156.171461 772.37996a30.769608 30.769608 0 0 1-30.769608 30.769608H443.270743a53.250261 53.250261 0 0 0-38.305023 17.143067l-82.19881 106.123751-82.19881-106.123751a51.303612 51.303612 0 0 0-37.677072-17.143067H116.798921a30.769608 30.769608 0 0 1-30.769608-30.769608V301.41657a30.769608 30.769608 0 0 1 30.769608-30.769609h682.520144a30.769608 30.769608 0 0 1 30.769609 30.769609z m186.941069-203.64457a30.769608 30.769608 0 0 1-30.769608 30.769608h-70.079353V301.290979a116.924511 116.924511 0 0 0-116.798921-116.79892H258.213528V116.798921a30.769608 30.769608 0 0 1 30.644018-30.769608h697.025817a30.769608 30.769608 0 0 1 30.769608 30.769608z" p-id="65598" fill="#B8B8B8"></path><path d="M236.109646 475.296253a67.065187 67.065187 0 0 0-61.476421 67.630343 56.515607 56.515607 0 0 0 61.476421 55.322499 61.476421 61.476421 0 1 0 0-122.952842z" p-id="65599" fill="#B8B8B8"></path><path d="M396.551174 536.772674a61.476421 61.476421 0 1 0 61.476422-61.476421 61.476421 61.476421 0 0 0-61.476422 61.476421z" p-id="65600" fill="#B8B8B8"></path><path d="M618.531919 536.772674a61.476421 61.476421 0 1 0 61.476421-61.476421 61.476421 61.476421 0 0 0-61.476421 61.476421z" p-id="65601" fill="#B8B8B8"></path></svg>