<?xml version="1.0" encoding="UTF-8"?>
<svg width="16px" height="16px" viewBox="0 0 16 16" version="1.1" xmlns="http://www.w3.org/2000/svg" xmlns:xlink="http://www.w3.org/1999/xlink">
    <title>bg-question</title>
    <defs>
        <polygon id="path-1" points="0 0 16 0 16 16 0 16"></polygon>
    </defs>
    <g id="页面-1" stroke="none" stroke-width="1" fill="none" fill-rule="evenodd">
        <g id="安全审计" transform="translate(-1678.000000, -820.000000)">
            <g id="编组-41" transform="translate(1457.000000, 676.000000)">
                <g id="bg-question" transform="translate(221.000000, 144.000000)">
                    <mask id="mask-2" fill="white">
                        <use xlink:href="#path-1"></use>
                    </mask>
                    <g id="Clip-2"></g>
                    <path d="M10.7996518,6.10664808 C10.7595903,6.83335808 10.5396129,7.3999895 9.42619018,8.5067096 C8.86614848,9.06671029 8.50616074,9.49335143 8.47281841,9.84003154 C8.44519917,10.1282546 8.20232952,10.3479814 7.91277671,10.346698 L7.85945243,10.346698 C7.71057415,10.3331962 7.57339597,10.2607938 7.47817403,10.1456569 C7.38303023,10.0304615 7.33785109,9.88198472 7.35273501,9.73337126 C7.54790579,8.93204215 8.01135827,8.22159207 8.66615312,7.72004849 C9.67284917,6.71334804 9.69285066,6.38664842 9.7061915,6.0533277 C9.72459131,5.65154987 9.57481453,5.2602408 9.29287947,4.97330685 C8.9567021,4.61891189 8.48791719,4.42078665 7.99946285,4.42666556 C7.07150313,4.42666556 6.31933774,5.17883445 6.31933774,6.10664808 C6.31933774,6.41778127 6.0670924,6.67000814 5.75593642,6.67000814 C5.44478043,6.67000814 5.19253509,6.41778127 5.19253509,6.10664808 C5.21077863,4.56963448 6.46216088,3.33320719 7.99946285,3.33335808 C8.79014673,3.33184 9.54688276,3.65478962 10.0928805,4.22668485 C10.5753968,4.73045499 10.830787,5.40977223 10.7996518,6.10664808 Z M7.89941634,12.6667147 C7.62978689,12.6667147 7.38662425,12.5042926 7.2834525,12.2551126 C7.18022216,12.0060107 7.23729672,11.7192916 7.42797498,11.5286469 C7.61863371,11.3379826 7.90545194,11.2809122 8.15457206,11.3840569 C8.40369217,11.4872796 8.56612614,11.7303659 8.56612614,11.9999756 C8.56612614,12.3681792 8.26764688,12.6667147 7.89941634,12.6667147 Z M7.99946285,0 C3.58079398,0 -0.00117196227,3.58170359 -0.00117196227,8.00004883 C-0.00117196227,12.4182964 3.58079398,16 7.99946285,16 C12.4180341,16 16,12.4182964 16,8.00004883 C16,3.58170359 12.4180341,0 7.99946285,0 Z" id="Fill-1" fill="#FFC250" mask="url(#mask-2)"></path>
                </g>
            </g>
        </g>
    </g>
</svg>