<?xml version="1.0" encoding="UTF-8"?>
<svg width="16px" height="16px" viewBox="0 0 16 16" version="1.1" xmlns="http://www.w3.org/2000/svg" xmlns:xlink="http://www.w3.org/1999/xlink">
    <title>a-xinxiliaotiantongzhi</title>
    <defs>
        <polygon id="path-1" points="0 0 16 0 16 16 0 16"></polygon>
    </defs>
    <g id="页面-1" stroke="none" stroke-width="1" fill="none" fill-rule="evenodd">
        <g id="1" transform="translate(-642.000000, -791.000000)">
            <g id="编组-37" transform="translate(335.000000, 584.000000)">
                <g id="a-xinxiliaotiantongzhi" transform="translate(307.000000, 207.000000)">
                    <g id="编组">
                        <mask id="mask-2" fill="white">
                            <use xlink:href="#path-1"></use>
                        </mask>
                        <g id="Clip-2"></g>
                        <path d="M6.13867488,16 C6.0410152,16 5.94270431,15.9741148 5.85513853,15.9226002 C5.66351717,15.8095703 5.55732186,15.5935345 5.58492892,15.3727775 L5.69568276,14.4871911 C5.74201238,14.1165417 5.62681629,13.7433339 5.37970172,13.4635269 C5.13258714,13.1836037 4.7765561,13.0230827 4.40305841,13.0230827 L2.41742012,13.0230827 C1.08372242,13.0230827 -0.00139547054,11.9379964 -0.00139547054,10.6043375 L-0.00139547054,2.41781499 C-0.00139547054,1.08415606 1.08372242,-0.000930286645 2.41742012,-0.000930286645 L13.5811844,-0.000930286645 C14.9148821,-0.000930286645 16,1.08415606 16,2.41781499 L16,10.6043375 C16,11.9379964 14.9148821,13.0230827 13.5811844,13.0230827 L10.8371311,13.0230827 C10.560293,13.0230827 10.2952932,13.109204 10.0710643,13.2720042 L6.46709887,15.8931566 C6.37162543,15.9625792 6.25668518,16 6.13867488,16 Z M2.41742012,1.11541369 C1.69942728,1.11541369 1.11498096,1.69984301 1.11498096,2.41781499 L1.11498096,10.6043375 C1.11498096,11.3223094 1.69942728,11.9067388 2.41742012,11.9067388 L4.40305841,11.9067388 C5.09670029,11.9067388 5.75745559,12.2048026 6.21644911,12.7246468 C6.59057476,13.1487179 6.80443062,13.6904471 6.82078088,14.2557125 L9.41465826,12.369254 C9.83067128,12.0665388 10.3228072,11.9067388 10.8371311,11.9067388 L13.5811844,11.9067388 C14.2991773,11.9067388 14.8836236,11.3223094 14.8836236,10.6043375 L14.8836236,2.41781499 C14.8836236,1.69984301 14.2991773,1.11541369 13.5811844,1.11541369 L2.41742012,1.11541369 Z" id="Fill-1" fill-opacity="0.848352819" fill="#22232A" mask="url(#mask-2)"></path>
                    </g>
                    <path d="M3.16167108,6.51107623 C3.16167108,7.02482702 3.57821903,7.44136287 4.09198477,7.44136287 C4.6057505,7.44136287 5.02229846,7.02482702 5.02229846,6.51107623 C5.02229846,5.99732543 4.6057505,5.58078958 4.09198477,5.58078958 C3.57821903,5.58078958 3.16167108,5.99732543 3.16167108,6.51107623 Z" id="Fill-3" fill-opacity="0.848352819" fill="#22232A"></path>
                    <path d="M6.88292584,6.51107623 C6.88292584,7.02482702 7.29947379,7.44136287 7.81323953,7.44136287 C8.32700526,7.44136287 8.74355322,7.02482702 8.74355322,6.51107623 C8.74355322,5.99732543 8.32700526,5.58078958 7.81323953,5.58078958 C7.29947379,5.58078958 6.88292584,5.99732543 6.88292584,6.51107623 Z" id="Fill-4" fill-opacity="0.848352819" fill="#22232A"></path>
                    <path d="M10.9763061,6.51107623 C10.9763061,7.02482702 11.392854,7.44136287 11.9066198,7.44136287 C12.4203855,7.44136287 12.8369335,7.02482702 12.8369335,6.51107623 C12.8369335,5.99732543 12.4203855,5.58078958 11.9066198,5.58078958 C11.392854,5.58078958 10.9763061,5.99732543 10.9763061,6.51107623 Z" id="Fill-5" fill-opacity="0.848352819" fill="#22232A"></path>
                </g>
            </g>
        </g>
    </g>
</svg>