<?xml version="1.0" encoding="UTF-8"?>
<svg width="12px" height="16px" viewBox="0 0 12 16" version="1.1" xmlns="http://www.w3.org/2000/svg" xmlns:xlink="http://www.w3.org/1999/xlink">
    <title>anquan-2</title>
    <defs>
        <polygon id="path-1" points="0 0 12 0 12 16 0 16"></polygon>
    </defs>
    <g id="页面-1" stroke="none" stroke-width="1" fill="none" fill-rule="evenodd">
        <g id="home" transform="translate(-1222.000000, -648.000000)">
            <g id="编组-33" transform="translate(576.000000, 440.000000)">
                <g id="编组-37" transform="translate(422.000000, 144.000000)">
                    <g id="编组-7" transform="translate(164.000000, 60.000000)">
                        <g id="anquan-2" transform="translate(60.000000, 4.000000)">
                            <mask id="mask-2" fill="white">
                                <use xlink:href="#path-1"></use>
                            </mask>
                            <g id="Clip-2"></g>
                            <path d="M11.3270867,1.99996338 C11.3270867,1.99996338 10.4297923,1.99996338 8.97166005,1.42861503 C7.4014523,0.857169015 6.44807217,0.228574498 6.44807217,0.228574498 L5.99942496,0 L5.60684427,0.228574498 C5.60684427,0.228574498 4.59745512,0.857169015 3.08325639,1.42861503 C1.56913434,1.9428344 0.727906434,1.99996338 0.727906434,1.99996338 L-0.00115008258,2.05711189 L-0.00115008258,9.9428637 C-0.00115008258,12.8571446 5.32643497,16 5.99942496,16 C6.61631009,16 12,12.8571446 12,9.9428637 L12,2.05711189 L11.3270867,1.99996338 Z M5.60684427,11.0857557 L2.80284709,8.4571197 L3.644075,7.37145431 L5.43860636,9.02856571 L8.80342213,4.74289641 L9.81288795,5.71426479 L5.60684427,11.0857557 Z" id="Fill-1" fill="#6CC584" mask="url(#mask-2)"></path>
                        </g>
                    </g>
                </g>
            </g>
        </g>
    </g>
</svg>