<svg t="1649216146277" class="icon" viewBox="0 0 1294 1024" version="1.1" xmlns="http://www.w3.org/2000/svg" p-id="1352" width="200" height="200"><path d="M1293.522135 121.589226a547.340067 547.340067 0 0 1-132.902357 133.548821 716.228956 716.228956 0 0 1-30.383838 241.077441A741.063973 741.063973 0 0 1 1035.474997 694.949495a789.225589 789.225589 0 0 1-151.380471 168.350168c-58.505051 48.808081-129.077441 87.703704-211.6633 116.740741C589.953111 1009.023569 501.602943 1023.569024 407.488465 1023.569024 259.286445 1023.569024 123.636613 984.942761 0.592842 907.636364c19.124579 2.154882 40.457912 3.178451 64 3.178451 123.043771 0 232.727273-36.794613 328.942761-110.329967a262.734007 262.734007 0 0 1-154.181818-51.609427c-45.414141-33.292929-76.606061-75.851852-93.521886-127.515152 17.993266 2.639731 34.693603 3.986532 49.993266 3.986532 23.542088 0 46.760943-2.962963 69.76431-8.781144A262.195286 262.195286 0 0 1 113.400923 527.407407a245.656566 245.656566 0 0 1-60.3367-164.363636V359.86532c37.171717 20.255892 77.090909 31.191919 119.757575 32.754209a260.417508 260.417508 0 0 1-86.141414-91.959596 246.895623 246.895623 0 0 1-31.946128-123.151515c0-46.868687 12.013468-90.343434 36.094276-130.370371a747.744108 747.744108 0 0 0 241.56229 190.707071 753.508418 753.508418 0 0 0 304.808081 79.622895 279.649832 279.649832 0 0 1-6.572391-59.151515c0-71.434343 25.858586-132.363636 77.575758-182.734006C759.811697 25.212121 822.249408 0 895.515401 0c76.606061 0 141.144781 27.205387 193.616162 81.56229A528 528 0 0 0 1257.373987 19.178451c-20.255892 61.306397-59.097643 108.767677-116.525253 142.329967 50.909091-5.333333 101.76431-18.639731 152.565657-39.973064H1293.522135z" fill="#000000" p-id="1353"></path></svg>