<?xml version="1.0" encoding="UTF-8"?>
<svg width="40px" height="40px" viewBox="0 0 40 40" version="1.1" xmlns="http://www.w3.org/2000/svg" xmlns:xlink="http://www.w3.org/1999/xlink">
    <title>twiterHover</title>
    <defs>
        <polygon id="path-1" points="0 0 40 0 40 40 0 40"></polygon>
    </defs>
    <g id="页面-1" stroke="none" stroke-width="1" fill="none" fill-rule="evenodd">
        <g id="1" transform="translate(-1621.000000, -272.000000)">
            <g id="twiterHover" transform="translate(1621.000000, 272.000000)">
                <g id="编组">
                    <mask id="mask-2" fill="white">
                        <use xlink:href="#path-1"></use>
                    </mask>
                    <g id="Clip-2"></g>
                    <path d="M-0.00292990567,20.0001221 C-0.00292990567,31.045741 8.95198495,40 19.9986571,40 C31.0450851,40 40,31.045741 40,20.0001221 C40,8.95425898 31.0450851,0 19.9986571,0 C8.95198495,0 -0.00292990567,8.95425898 -0.00292990567,20.0001221 Z" id="Fill-1" fill="#00BDF3" mask="url(#mask-2)"></path>
                </g>
                <path d="M29.5858945,15.4934271 L29.5858945,14.8532896 C30.5545213,14.0960621 31.3731857,13.164518 31.9994043,12.1067042 C31.0893756,12.5408356 30.1098593,12.8116856 29.1059271,12.9066564 C30.1443833,12.2051419 30.9335046,11.191957 31.359464,10.0133911 C30.3597314,10.623011 29.2709296,11.0727674 28.1325636,11.3466447 C27.3117505,10.2106082 25.9869937,9.54820501 24.5855709,9.57335153 C21.8048463,9.60997267 19.5763112,11.8860497 19.598432,14.666766 C19.5663984,15.1173036 19.6207481,15.5698921 19.7585025,16.0000195 C15.676265,15.6526558 11.9314549,13.5940596 9.45114321,10.3332646 C9.04603492,11.1324355 8.82282494,12.0111475 8.79767658,12.9066564 C8.7257474,14.7028012 9.58181701,16.4100786 11.0645446,17.4266814 C10.274642,17.3860564 9.50436983,17.1673061 8.81100766,16.7865928 C8.76178524,19.272045 10.4114198,21.4714129 12.8114032,22.1201442 C12.3791444,22.2481229 11.928232,22.3022733 11.4778566,22.2799588 C11.1496095,22.3049589 10.8203858,22.2500272 10.5178242,22.1201442 C11.0828565,24.2513968 12.9808006,25.7587717 15.1848709,25.8266917 C13.4780544,27.2276211 11.3392233,27.9953467 9.13109985,28.000083 L7.99766584,28.000083 C10.167261,29.5370478 12.7528539,30.378748 15.4114991,30.4132695 C24.5855709,30.4666876 29.5858945,22.4132598 29.5858945,15.4934271 Z" id="Fill-3" fill="#FFFFFF"></path>
            </g>
        </g>
    </g>
</svg>