<?xml version="1.0" encoding="UTF-8"?>
<svg width="20px" height="16px" viewBox="0 0 20 16" version="1.1" xmlns="http://www.w3.org/2000/svg" xmlns:xlink="http://www.w3.org/1999/xlink">
    <title>tupian-2</title>
    <g id="页面-1" stroke="none" stroke-width="1" fill="none" fill-rule="evenodd">
        <g id="Projects-评论" transform="translate(-776.000000, -407.000000)" fill="#000000">
            <g id="tupian-2" transform="translate(776.000000, 407.000000)">
                <path d="M18.352673,0 L1.64732704,0 C0.737776308,0 0,0.726850656 0,1.62290763 L0,14.3770924 C0,15.2732466 0.737776308,16 1.64732704,16 L18.352673,16 C19.2622977,16 20,15.2732466 20,14.3770924 L20,1.62290763 C20,0.726850656 19.2622977,0 18.352673,0 Z M1.64732704,1.19477505 L18.352673,1.19477505 C18.5952593,1.19477505 18.787241,1.38391373 18.787241,1.62290763 L18.787241,10.1256894 L14.9065258,6.73057582 C14.6943121,6.5413399 14.3709459,6.53147095 14.1384755,6.70067727 L9.31786163,10.2650944 L6.76100854,8.4729561 C6.55891083,8.32360922 6.27593456,8.32360922 6.06372086,8.4729561 L1.2127343,11.8581034 L1.2127343,1.62290763 C1.2127343,1.38391373 1.4047407,1.19477505 1.64732704,1.19477505 Z M18.352673,14.805225 L1.64732704,14.805225 C1.4047407,14.805225 1.2127343,14.6160863 1.2127343,14.3770924 L1.2127343,13.321698 L6.41743503,9.69755677 L11.3087868,13.1325593 C11.5816225,13.321698 11.9656106,13.2619739 12.157691,12.9931543 C12.3496727,12.7243591 12.2890508,12.3459602 12.0162152,12.1568215 L10.3486562,10.991945 L14.4719577,7.94521031 L18.6457652,11.5992501 C18.6862539,11.6391391 18.7367351,11.6589743 18.787241,11.6888971 L18.787241,14.3770924 C18.787241,14.6160863 18.5952593,14.805225 18.352673,14.805225 Z" id="Fill-1"></path>
                <path d="M6.01311624,7.16860167 C7.40781497,7.16860167 8.53969539,6.05348315 8.53969539,4.6795356 C8.53969539,3.30556374 7.40781497,2.19044523 6.01311624,2.19044523 C4.61851621,2.19044523 3.48661112,3.30556374 3.48661112,4.6795356 C3.48661112,6.05348315 4.61851621,7.16860167 6.01311624,7.16860167 Z M6.01311624,3.38522027 C6.74077656,3.38522027 7.32696108,3.96262682 7.32696108,4.6795356 C7.32696108,5.39642007 6.74077656,5.97392385 6.01311624,5.97392385 C5.28555462,5.97392385 4.69937009,5.39642007 4.69937009,4.6795356 C4.69937009,3.96262682 5.28555462,3.38522027 6.01311624,3.38522027 Z" id="Fill-2"></path>
            </g>
        </g>
    </g>
</svg>