<?xml version="1.0" encoding="UTF-8"?>
<svg width="32px" height="20px" viewBox="0 0 32 20" version="1.1" xmlns="http://www.w3.org/2000/svg" xmlns:xlink="http://www.w3.org/1999/xlink">
    <title>walletconnect-logo</title>
    <defs>
        <polygon id="path-1" points="0 0 32 0 32 20 0 20"></polygon>
    </defs>
    <g id="页面-1" stroke="none" stroke-width="1" fill="none" fill-rule="evenodd">
        <g id="钱包" transform="translate(-741.000000, -575.000000)">
            <g id="编组-40" transform="translate(679.000000, 347.000000)">
                <g id="walletconnect-logo" transform="translate(62.000000, 228.000000)">
                    <mask id="mask-2" fill="white">
                        <use xlink:href="#path-1"></use>
                    </mask>
                    <g id="Clip-2"></g>
                    <path d="M6.5498822,3.90762046 C11.7685078,-1.30254015 20.2299295,-1.30254015 25.4486922,3.90762046 L26.0767882,4.53476865 C26.2018591,4.65849861 26.2724274,4.82863429 26.2724274,5.00640175 C26.2724274,5.1840574 26.2018591,5.35419308 26.0767882,5.47803486 L23.928294,7.62306951 C23.7966707,7.753341 23.5874059,7.753341 23.4557826,7.62306951 L22.5914446,6.76025853 C18.9505984,3.12543243 13.0478389,3.12543243 9.40702016,6.76025853 L8.4814078,7.68431948 C8.34978453,7.81459097 8.1405197,7.81459097 8.00892384,7.68431948 L5.86040216,5.53928482 C5.73533126,5.415471 5.66476298,5.24533532 5.66476298,5.06765172 C5.66476298,4.88988425 5.73533126,4.71974857 5.86040216,4.59601861 L6.54977253,3.90762046 L6.5498822,3.90762046 Z M29.8920811,8.34378394 L31.8044431,10.2529322 C31.9294043,10.3766621 32,10.5467698 32,10.7245653 C32,10.9022209 31.9294043,11.0723566 31.8044431,11.1961984 L23.1820632,19.8045718 C22.9210648,20.065003 22.4980663,20.065003 22.2370679,19.8045718 L16.1174493,13.6949229 C16.0515965,13.6298431 15.9470601,13.6298431 15.8812073,13.6949229 L9.76158875,19.8046557 C9.50061771,20.0651148 9.0774822,20.0651148 8.81651117,19.8046557 L0.194021641,11.1961984 C0.06892333,11.0723566 -0.00164494821,10.9022209 -0.00164494821,10.7244534 C-0.00164494821,10.546686 0.06892333,10.3765503 0.194021641,10.2528203 L2.1063836,8.34367212 C2.36724497,8.08321301 2.79027082,8.08321301 3.05124185,8.34367212 L9.17097009,14.453321 C9.23685027,14.5184008 9.34146897,14.5184008 9.40721207,14.453321 L15.5265291,8.34378394 C15.7875001,8.08332483 16.210526,8.08321301 16.471497,8.34378394 L22.5912252,14.4534328 C22.6569683,14.5185127 22.7616144,14.5185127 22.8274672,14.4534328 L28.9471954,8.34378394 C29.2081939,8.08332483 29.6310827,8.08332483 29.8920811,8.34378394 Z" id="Fill-1" fill="#3B99FC" mask="url(#mask-2)"></path>
                </g>
            </g>
        </g>
    </g>
</svg>