<?xml version="1.0" encoding="UTF-8"?>
<svg width="16px" height="14px" viewBox="0 0 16 14" version="1.1" xmlns="http://www.w3.org/2000/svg" xmlns:xlink="http://www.w3.org/1999/xlink">
    <title>weixianyuan</title>
    <defs>
        <polygon id="path-1" points="0 0 16 0 16 14 0 14"></polygon>
    </defs>
    <g id="页面-1" stroke="none" stroke-width="1" fill="none" fill-rule="evenodd">
        <g id="安全审计" transform="translate(-1256.000000, -821.000000)">
            <g id="编组-42" transform="translate(1035.000000, 676.000000)">
                <g id="weixianyuan" transform="translate(221.000000, 145.000000)">
                    <mask id="mask-2" fill="white">
                        <use xlink:href="#path-1"></use>
                    </mask>
                    <g id="Clip-2"></g>
                    <path d="M15.918424,13.0954168 L8.52237923,0.302366541 C8.41485439,0.115367466 8.2153747,0 7.99940684,0 C7.78343897,0 7.58397882,0.115367466 7.47645398,0.302366541 L0.0804092033,13.0954168 C-0.0277993917,13.2814991 -0.0284245362,13.5111026 0.0788854138,13.6977115 C0.186175828,13.8843204 0.385049902,13.9995513 0.600548912,14 L15.3982843,14 C15.6137833,13.9995513 15.8126378,13.8843204 15.9199478,13.6977115 C16.0272382,13.5111026 16.0266326,13.2814991 15.918424,13.0954168 Z M7.5993144,4.6484943 L8.39951881,4.6484943 C8.50985681,4.64889532 8.61493968,4.69544026 8.6893514,4.7767476 C8.76374359,4.85813296 8.80060758,4.96686787 8.79099598,5.07659767 L8.38807085,9.2829064 C8.37074263,9.48516035 8.20125035,9.64045971 7.99796119,9.64045971 C7.79475018,9.64045971 7.62525789,9.48516035 7.60792967,9.2829064 L7.20783723,5.08802907 C7.19379101,4.97617296 7.22881864,4.86377064 7.30375783,4.77965422 C7.37877516,4.69544026 7.4865149,4.64766634 7.5993144,4.6484943 Z M8.83105841,11.4602966 C8.82334721,11.6212337 8.68948815,11.7473303 8.52810321,11.7455941 L7.47073,11.7455941 C7.30932552,11.7473303 7.17546647,11.6212337 7.16775594,11.4602966 L7.16775594,10.6412735 C7.16700748,10.5608049 7.19867495,10.4833796 7.25568031,10.4265347 C7.31268567,10.3696117 7.39014497,10.3379901 7.47073,10.3387374 L8.52810321,10.3387374 C8.60868823,10.3379901 8.68620614,10.3696117 8.74313336,10.4265347 C8.80013872,10.4833796 8.83182573,10.5608049 8.83105841,10.6412735 L8.83105841,11.4602966 Z" id="Fill-1" fill="#DB3939" mask="url(#mask-2)"></path>
                </g>
            </g>
        </g>
    </g>
</svg>